<svg width="178" height="100" viewBox="0 0 178 100" fill="none" xmlns="http://www.w3.org/2000/svg">
<g clip-path="url(#clip0_11_17)">
<path d="M35.3955 13.1978C35.2715 12.8257 35.0854 12.6396 34.8374 12.6396C34.5893 12.6396 34.4032 12.8257 34.2792 13.1978L21.535 46.3141C21.0389 47.2443 21.38 47.7094 22.5583 47.7094H47.1164C48.2327 47.7094 48.5738 47.2443 48.1397 46.3141L35.3955 13.1978ZM50.2792 51.8024C49.9071 50.9342 49.1629 50.5001 48.0467 50.5001H21.6281C20.5118 50.5001 19.7676 50.9342 19.3955 51.8024L12.7908 69.0117C12.2947 69.942 12.6048 70.4071 13.7211 70.4071H19.3025C20.2327 70.4071 20.6978 70.8722 20.6978 71.8024C20.6978 72.7327 20.2327 73.1978 19.3025 73.1978H1.62802C0.697783 73.1978 0.232666 72.7327 0.232666 71.8024C0.232666 70.8722 0.697783 70.4071 1.62802 70.4071H7.67453C8.41872 70.4071 9.03887 69.942 9.53499 69.0117L32.7908 8.54662C33.0389 7.61639 33.7211 7.15128 34.8374 7.15128C35.9536 7.15128 36.6358 7.61639 36.8839 8.54662L60.1397 69.0117C60.5738 69.942 61.1939 70.4071 62.0001 70.4071H68.0467C68.9769 70.4071 69.442 70.8722 69.442 71.8024C69.442 72.7327 68.9769 73.1978 68.0467 73.1978H50.3722C49.442 73.1978 48.9769 72.7327 48.9769 71.8024C48.9769 70.8722 49.442 70.4071 50.3722 70.4071H55.9536C57.0079 70.4071 57.318 69.942 56.8839 69.0117L50.2792 51.8024Z" fill="#FF9064"/>
<path d="M109.861 81.3956C132.338 81.3956 150.559 63.1746 150.559 40.6978C150.559 18.221 132.338 0 109.861 0C87.3843 0 69.1633 18.221 69.1633 40.6978C69.1633 63.1746 87.3843 81.3956 109.861 81.3956Z" fill="#FF9064"/>
<path d="M101.197 73.1395C100.267 73.1395 99.8021 72.6743 99.8021 71.7441C99.8021 70.8139 100.267 70.3488 101.197 70.3488H107.709C108.639 70.3488 109.104 69.8837 109.104 68.9534V12.2092C109.104 11.279 108.639 10.8139 107.709 10.8139H101.197C100.267 10.8139 99.8021 10.3488 99.8021 9.41854C99.8021 8.4883 100.267 8.02319 101.197 8.02319H110.5C111.43 8.02319 111.895 8.4883 111.895 9.41854V68.9534C111.895 69.8837 112.36 70.3488 113.29 70.3488H119.802C120.732 70.3488 121.197 70.8139 121.197 71.7441C121.197 72.6743 120.732 73.1395 119.802 73.1395H101.197Z" fill="#333"/>
<path d="M155.395 73.1978C154.465 73.1978 154 72.7327 154 71.8024C154 70.8722 154.465 70.4071 155.395 70.4071H161.907C162.837 70.4071 163.302 69.942 163.302 69.0117V30.8722C163.302 29.942 162.837 29.4769 161.907 29.4769H155.395C154.465 29.4769 154 29.0117 154 28.0815C154 27.1513 154.465 26.6862 155.395 26.6862H164.698C165.628 26.6862 166.093 27.1513 166.093 28.0815V69.0117C166.093 69.942 166.558 70.4071 167.488 70.4071H174C174.93 70.4071 175.395 70.8722 175.395 71.8024C175.395 72.7327 174.93 73.1978 174 73.1978H155.395ZM161.535 18.221C160.853 17.4769 160.512 16.5776 160.512 15.5234C160.512 14.4691 160.853 13.6009 161.535 12.9187C162.279 12.1745 163.178 11.8024 164.233 11.8024C165.287 11.8024 166.155 12.1745 166.837 12.9187C167.581 13.6009 167.954 14.4691 167.954 15.5234C167.954 16.5776 167.581 17.4769 166.837 18.221C166.155 18.9032 165.287 19.2443 164.233 19.2443C163.178 19.2443 162.279 18.9032 161.535 18.221Z" fill="#FF9064"/>
<path d="M49.3333 92.0465H1.16284V94.3721H49.3333V92.0465Z" fill="#FF9064"/>
<path d="M61.4326 99.4186C60.4326 99.4186 59.543 99.1861 58.764 98.7209C57.9849 98.2442 57.3744 97.564 56.9326 96.6802C56.4907 95.7965 56.2698 94.7326 56.2698 93.4884C56.2698 92.2558 56.4965 91.1977 56.95 90.314C57.4035 89.4302 58.0256 88.75 58.8163 88.2733C59.607 87.7965 60.5081 87.5582 61.5198 87.5582C62.3105 87.5582 62.9733 87.7093 63.5081 88.0116C64.0547 88.3023 64.4907 88.6221 64.8163 88.9709L64.014 89.9128C63.7233 89.6105 63.386 89.3547 63.0023 89.1454C62.6186 88.9361 62.136 88.8314 61.5547 88.8314C60.7872 88.8314 60.1186 89.0233 59.5488 89.407C58.9791 89.7791 58.5372 90.3082 58.2233 90.9942C57.9209 91.6802 57.7698 92.5 57.7698 93.4535C57.7698 94.8954 58.0954 96.0407 58.7465 96.8896C59.4093 97.7268 60.3512 98.1454 61.5721 98.1454C61.9791 98.1454 62.3686 98.0872 62.7407 97.9709C63.1128 97.843 63.4093 97.6744 63.6302 97.4651V94.4826H61.2058V93.2791H64.9558V98.093C64.5954 98.4768 64.107 98.7965 63.4907 99.0523C62.8861 99.2965 62.2 99.4186 61.4326 99.4186ZM67.6975 99.2093V87.7675H69.1451V92.564H74.4649V87.7675H75.93V99.2093H74.4649V93.8198H69.1451V99.2093H67.6975ZM81.0465 92.8082L80.5058 94.5523H83.9418L83.4011 92.8082C83.1918 92.1686 82.9942 91.5349 82.8081 90.907C82.6221 90.2675 82.436 89.6163 82.25 88.9535H82.1802C82.0058 89.6163 81.8256 90.2675 81.6395 90.907C81.4535 91.5349 81.2558 92.1686 81.0465 92.8082ZM77.5581 99.2093L81.4302 87.7675H83.0697L86.9418 99.2093H85.3895L84.3081 95.7209H80.1395L79.0407 99.2093H77.5581ZM91.7374 99.4186C90.9351 99.4186 90.1909 99.2675 89.5048 98.9651C88.8188 98.6512 88.2258 98.2384 87.7258 97.7268L88.5979 96.7151C89.0048 97.1454 89.4816 97.4942 90.0281 97.7616C90.5862 98.0175 91.1618 98.1454 91.7548 98.1454C92.5106 98.1454 93.0979 97.9768 93.5165 97.6396C93.9351 97.2907 94.1444 96.8372 94.1444 96.2791C94.1444 95.8837 94.0572 95.5698 93.8827 95.3372C93.7199 95.1047 93.4932 94.907 93.2025 94.7442C92.9234 94.5814 92.6037 94.4186 92.2432 94.2558L90.6037 93.5407C90.2432 93.3896 89.8827 93.1919 89.5223 92.9477C89.1734 92.7035 88.8769 92.3896 88.6327 92.0058C88.4002 91.6221 88.2839 91.1512 88.2839 90.593C88.2839 90.0116 88.4351 89.4942 88.7374 89.0407C89.0513 88.5756 89.4816 88.2151 90.0281 87.9593C90.5746 87.6919 91.1909 87.5582 91.8769 87.5582C92.563 87.5582 93.1967 87.6919 93.7781 87.9593C94.3595 88.2151 94.8537 88.5523 95.2606 88.9709L94.4758 89.9128C94.1269 89.5756 93.7374 89.314 93.3072 89.1279C92.8886 88.9302 92.4118 88.8314 91.8769 88.8314C91.2374 88.8314 90.7199 88.9826 90.3246 89.2849C89.9409 89.5872 89.749 89.9942 89.749 90.5058C89.749 90.8663 89.842 91.1686 90.0281 91.4128C90.2258 91.6454 90.4699 91.8372 90.7606 91.9884C91.0513 92.1396 91.3479 92.2791 91.6502 92.407L93.2723 93.1047C93.7141 93.2907 94.1095 93.5175 94.4583 93.7849C94.8188 94.0407 95.1037 94.3605 95.313 94.7442C95.5223 95.1163 95.6269 95.5872 95.6269 96.157C95.6269 96.7616 95.4699 97.314 95.156 97.814C94.842 98.3023 94.3944 98.6919 93.813 98.9826C93.2316 99.2733 92.5397 99.4186 91.7374 99.4186ZM97.8801 99.2093V87.7675H104.473V88.9884H99.3277V92.5814H103.671V93.8198H99.3277V97.9709H104.647V99.2093H97.8801ZM107.078 99.2093V87.7675H108.822L111.02 93.8721C111.159 94.2675 111.293 94.6686 111.421 95.0756C111.56 95.4709 111.7 95.8663 111.84 96.2616H111.909C112.049 95.8663 112.177 95.4709 112.293 95.0756C112.421 94.6686 112.555 94.2675 112.694 93.8721L114.857 87.7675H116.619V99.2093H115.258V92.9128C115.258 92.4012 115.281 91.8372 115.328 91.2209C115.374 90.593 115.415 90.0291 115.45 89.5291H115.38L114.473 92.1279L112.31 98.0582H111.351L109.188 92.1279L108.281 89.5291H108.212C108.247 90.0291 108.281 90.593 108.316 91.2209C108.363 91.8372 108.386 92.4012 108.386 92.9128V99.2093H107.078ZM119.751 99.2093V87.7675H121.198V99.2093H119.751Z" fill="#FF9064"/>
<path d="M177.562 92.0465H129.392V94.3721H177.562V92.0465Z" fill="#FF9064"/>
</g>
<defs>
<clipPath id="clip0_11_17">
<rect width="178" height="100" fill="#FF9064"/>
</clipPath>
</defs>
</svg>
